# xmcd
#
# Track frame offsets:
#	150
#	24428
#	57479
#	96609
#	127697
#	173005
#	199622
#	243015
#
# Disc length: 3656 seconds
#
# Revision: 0
# Processed by: cddbd v1.5.2PL0 Copyright (c) Steve Scherf et al.
# Submitted via: audiograbber 1.83.01
#
DISCID=5f0e4608
DTITLE=Grateful Dead - 93-04-01 Nassau Veterans Memorial Coliseum, Uniondale NY
DYEAR=1900
DGENRE=
TTITLE0=Jack Straw
TTITLE1=They Love Each Other
TTITLE2=New Minglewood Blues
TTITLE3=Candyman
TTITLE4=Desolation Row
TTITLE5=Stagger Lee
TTITLE6=Eternity
TTITLE7=Liberty
EXTD=
EXTT0=
EXTT1=
EXTT2=
EXTT3=
EXTT4=
EXTT5=
EXTT6=
EXTT7=
PLAYORDER=
